<svg width="25" height="28" viewBox="0 0 25 28" fill="none" xmlns="http://www.w3.org/2000/svg">
<path d="M17.3662 0.666629C17.9323 0.665299 18.3799 1.10508 18.3812 1.69145L18.3825 2.69095C22.0554 2.97881 24.4816 5.48155 24.4855 9.31963L24.5 20.554C24.5053 24.7386 21.8763 27.3133 17.6624 27.32L7.36919 27.3333C3.1816 27.3386 0.519764 24.7026 0.514499 20.506L0.500009 9.40359C0.494752 5.54019 2.83538 3.04411 6.50824 2.70694L6.50692 1.70744C6.5056 1.12107 6.94003 0.679959 7.51926 0.679959C8.09849 0.678626 8.53292 1.11841 8.53423 1.70478L8.53555 2.63765L16.3552 2.62698L16.3539 1.69412C16.3526 1.10774 16.787 0.667965 17.3662 0.666629ZM17.9033 19.5892H17.8902C17.2846 19.6038 16.7988 20.1116 16.812 20.7246C16.8133 21.3376 17.3017 21.8427 17.9073 21.856C18.5247 21.8547 19.0249 21.3469 19.0236 20.7206C19.0236 20.0942 18.522 19.5892 17.9033 19.5892ZM7.05588 19.5905C6.45031 19.6171 5.9764 20.1249 5.97771 20.7379C6.00536 21.3509 6.5056 21.8307 7.11117 21.8027C7.70488 21.7761 8.17748 21.2683 8.14983 20.6553C8.13667 20.0556 7.64827 19.5892 7.05588 19.5905ZM12.4796 19.5838C11.874 19.6118 11.4014 20.1182 11.4014 20.7313C11.4291 21.3443 11.9293 21.8227 12.5349 21.7961C13.1273 21.7681 13.6012 21.2617 13.5736 20.6473C13.5604 20.0489 13.072 19.5825 12.4796 19.5838ZM7.04929 14.7929C6.44373 14.8195 5.97113 15.3273 5.97244 15.9403C5.99878 16.5533 6.50034 17.0331 7.1059 17.0051C7.6983 16.9785 8.1709 16.4707 8.14325 15.8577C8.13009 15.258 7.64301 14.7916 7.04929 14.7929ZM12.4743 14.7462C11.8688 14.7729 11.3949 15.2806 11.3962 15.8937C11.4225 16.5067 11.9241 16.9851 12.5296 16.9585C13.122 16.9305 13.5946 16.4241 13.5683 15.811C13.5538 15.2113 13.0667 14.7449 12.4743 14.7462ZM17.8981 14.7529C17.2925 14.7662 16.8186 15.2593 16.8199 15.8724V15.887C16.8331 16.5 17.3333 16.9651 17.9402 16.9518C18.5326 16.9372 19.0052 16.4294 18.992 15.8164C18.9644 15.23 18.4891 14.7516 17.8981 14.7529ZM16.3578 4.67929L8.53818 4.68995L8.5395 5.76808C8.5395 6.34246 8.10639 6.79556 7.52716 6.79556C6.94793 6.7969 6.51219 6.34512 6.51219 5.77074L6.51087 4.74459C3.94382 5.00179 2.52338 6.51037 2.52732 9.40092L2.52865 9.81538L22.4595 9.78873V9.3223C22.4029 6.45707 20.9654 4.95382 18.3851 4.72993L18.3865 5.75608C18.3865 6.32913 17.9402 6.78357 17.3741 6.78357C16.7949 6.7849 16.3591 6.33179 16.3591 5.75875L16.3578 4.67929Z" fill="#ABCEF5"/>
</svg>
